<svg id="visual" viewBox="0 0 900 600" width="900" height="600" xmlns="http://www.w3.org/2000/svg" xmlns:xlink="http://www.w3.org/1999/xlink" version="1.1"><rect x="0" y="0" width="900" height="600" fill="#002233"></rect><path d="M268 0L267.7 20C267.3 40 266.7 80 248.8 120C231 160 196 200 199.7 240C203.3 280 245.7 320 263.7 360C281.7 400 275.3 440 255.8 480C236.3 520 203.7 560 187.3 580L171 600L0 600L0 580C0 560 0 520 0 480C0 440 0 400 0 360C0 320 0 280 0 240C0 200 0 160 0 120C0 80 0 40 0 20L0 0Z" fill="#0066FF" stroke-linecap="round" stroke-linejoin="miter"></path></svg>